<svg id="Layer_1" data-name="Layer 1" xmlns="http://www.w3.org/2000/svg" viewBox="0 0 32.25 36.5"><defs><style>.cls-1{fill:none;stroke:#fff;stroke-miterlimit:10;stroke-width:2px;}</style></defs><title>Artboard 1</title><path class="cls-1" d="M30.62,21.37l-.38-6.11a2.29,2.29,0,0,0-2.3-2.16h-.07a2.31,2.31,0,0,0-2.31,2.12l-.09,1.19L25.34,14A2.31,2.31,0,0,0,23,11.77h0a2.31,2.31,0,0,0-2.3,2.15l-.13,1.75-.14-3a2.3,2.3,0,0,0-2.3-2.2h0a2.32,2.32,0,0,0-2.31,2.17l-.07,1.15-.26-9.7a2.21,2.21,0,0,0-2.21-2.15h0a2.21,2.21,0,0,0-2.22,2.21V22.56L8.4,17.31A2.36,2.36,0,0,0,6,15.9H6a1.57,1.57,0,0,0-1.34,2l2.11,7a7.64,7.64,0,0,0,2.11,3.38l2.15,2A6.32,6.32,0,0,1,13,35H26.54v0a8,8,0,0,1,1.66-4.85l1.11-1.44a6.39,6.39,0,0,0,1.31-3.88Z"/><path d="M30.62,21.37l-.38-6.11a2.29,2.29,0,0,0-2.3-2.16h-.07a2.31,2.31,0,0,0-2.31,2.12l-.09,1.19L25.34,14A2.31,2.31,0,0,0,23,11.77h0a2.31,2.31,0,0,0-2.3,2.15l-.13,1.75-.14-3a2.3,2.3,0,0,0-2.3-2.2h0a2.32,2.32,0,0,0-2.31,2.17l-.07,1.15-.26-9.7a2.21,2.21,0,0,0-2.21-2.15h0a2.21,2.21,0,0,0-2.22,2.21V22.56L8.4,17.31A2.36,2.36,0,0,0,6,15.9H6a1.57,1.57,0,0,0-1.34,2l2.11,7a7.64,7.64,0,0,0,2.11,3.38l2.15,2A6.32,6.32,0,0,1,13,35H26.54v0a8,8,0,0,1,1.66-4.85l1.11-1.44a6.39,6.39,0,0,0,1.31-3.88Z"/></svg>