<?xml version="1.0" encoding="utf-8"?>
<!-- Generator: Adobe Illustrator 22.0.0, SVG Export Plug-In . SVG Version: 6.00 Build 0)  -->
<svg version="1.1" id="Layer_1" xmlns="http://www.w3.org/2000/svg" xmlns:xlink="http://www.w3.org/1999/xlink" x="0px" y="0px"
	 viewBox="0 0 32.2 36.5" style="enable-background:new 0 0 32.2 36.5;" xml:space="preserve">
<style type="text/css">
	.st0{fill:none;stroke:#FFFFFF;stroke-width:4;stroke-miterlimit:10;}
</style>
<title>Artboard 1</title>
<path class="st0" d="M28.8,12.7L25.6,7c-0.6-1.2-2-1.6-3.2-1.1l-0.1,0c-1.2,0.6-1.7,1.9-1.3,3.1l0.4,1.2L20.3,8
	c-0.6-1.2-2.1-1.7-3.3-1.1l0,0c-1.2,0.6-1.7,1.9-1.3,3.1l0.7,1.8l-1.5-2.9c-0.6-1.2-2-1.7-3.2-1.1l0,0c-1.2,0.6-1.7,1.9-1.3,3.2
	l0.5,1.2L6.6,3.7C6,2.6,4.6,2.1,3.4,2.7l0,0c-1.2,0.6-1.7,2-1.2,3.2c0,0,0,0,0,0l7.5,16L4.9,18c-0.1-0.1-0.2-0.1-0.3-0.2l-0.5-0.3
	c-1.5-0.8-3.2,0.6-2.8,2.2l0,0c0.1,0.3,0.2,0.5,0.4,0.8l5.4,6.5c1,1.1,2.2,1.9,3.6,2.3l3,1c1.8,0.6,3.3,2,4.1,3.7L31,27.9l0,0
	c-0.8-1.7-1-3.6-0.6-5.5l0.4-1.9c0.3-1.5,0.2-3-0.5-4.4L28.8,12.7z"/>
<path d="M28.8,12.7L25.6,7c-0.6-1.2-2-1.6-3.2-1.1l-0.1,0c-1.2,0.6-1.7,1.9-1.3,3.1l0.4,1.2L20.3,8c-0.6-1.2-2.1-1.7-3.3-1.1l0,0
	c-1.2,0.6-1.7,1.9-1.3,3.1l0.7,1.8l-1.5-2.9c-0.6-1.2-2-1.7-3.2-1.1l0,0c-1.2,0.6-1.7,1.9-1.3,3.2l0.5,1.2L6.6,3.7
	C6,2.6,4.6,2.1,3.4,2.7l0,0c-1.2,0.6-1.7,2-1.2,3.2c0,0,0,0,0,0l7.5,16L4.9,18c-0.1-0.1-0.2-0.1-0.3-0.2l-0.5-0.3
	c-1.5-0.8-3.2,0.6-2.8,2.2l0,0c0.1,0.3,0.2,0.5,0.4,0.8l5.4,6.5c1,1.1,2.2,1.9,3.6,2.3l3,1c1.8,0.6,3.3,2,4.1,3.7L31,27.9l0,0
	c-0.8-1.7-1-3.6-0.6-5.5l0.4-1.9c0.3-1.5,0.2-3-0.5-4.4L28.8,12.7z"/>
</svg>
