<?xml version="1.0" encoding="utf-8"?>
<!-- Generator: Adobe Illustrator 22.0.0, SVG Export Plug-In . SVG Version: 6.00 Build 0)  -->
<svg version="1.1" id="Layer_1" xmlns="http://www.w3.org/2000/svg" xmlns:xlink="http://www.w3.org/1999/xlink" x="0px" y="0px"
	 viewBox="0 0 32.2 36.5" style="enable-background:new 0 0 32.2 36.5;" xml:space="preserve">
<style type="text/css">
	.st0{fill:none;stroke:#FFFFFF;stroke-width:4;stroke-miterlimit:10;}
</style>
<title>Artboard 1</title>
<path class="st0" d="M30.2,13.3c-0.1-1.2-1.1-2.2-2.3-2.2h-0.1c-1.2,0-2.2,0.9-2.3,2.1l-0.1,3.2L25.3,13c0-1.3-1.1-2.2-2.3-2.2l0,0
	c-1.2,0-2.2,0.9-2.3,2.1l-0.1,2.8l-0.1-3c-0.1-1.2-1.1-2.2-2.3-2.2l0,0c-1.2,0-2.2,1-2.3,2.2l-0.1,1.1l-0.3-9.7c0-1.2-1-2.2-2.2-2.2
	l0,0c-1.2,0-2.2,1-2.2,2.2l0,0v17.4l-2.6-5.1c0-0.1-0.1-0.2-0.2-0.3L8,15.7c-1-1.2-3-0.7-3.3,0.8l0,0c-0.1,0.3,0,0.5,0,0.8l2,7.6
	c0.4,1.3,1.1,2.5,2.1,3.4l2.1,2c1.3,1.2,2,2.9,2,4.7h13.5l0,0c0-1.8,0.6-3.5,1.7-4.9l1.1-1.4c0.9-1.1,1.3-2.5,1.3-3.9L30.2,13.3z"/>
<path d="M30.2,13.3c-0.1-1.2-1.1-2.2-2.3-2.2h-0.1c-1.2,0-2.2,0.9-2.3,2.1l-0.1,3.2L25.3,13c0-1.3-1.1-2.2-2.3-2.2l0,0
	c-1.2,0-2.2,0.9-2.3,2.1l-0.1,2.8l-0.1-3c-0.1-1.2-1.1-2.2-2.3-2.2l0,0c-1.2,0-2.2,1-2.3,2.2l-0.1,1.1l-0.3-9.7c0-1.2-1-2.2-2.2-2.2
	l0,0c-1.2,0-2.2,1-2.2,2.2l0,0v17.4l-2.6-5.1c0-0.1-0.1-0.2-0.2-0.3L8,15.7c-1-1.2-3-0.7-3.3,0.8l0,0c-0.1,0.3,0,0.5,0,0.8l2,7.6
	c0.4,1.3,1.1,2.5,2.1,3.4l2.1,2c1.3,1.2,2,2.9,2,4.7h13.5l0,0c0-1.8,0.6-3.5,1.7-4.9l1.1-1.4c0.9-1.1,1.3-2.5,1.3-3.9L30.2,13.3z"/>
</svg>
